<?xml version="1.0" encoding="UTF-8" standalone="no"?>
<svg
   width="846.35602"
   height="552.91302"
   viewBox="0 0 846.35602 552.91302"
   version="1.1"
   id="svg25"
   sodipodi:docname="logo.svg"
   inkscape:version="1.4.3 (0d15f75, 2025-12-25)"
   xmlns:inkscape="http://www.inkscape.org/namespaces/inkscape"
   xmlns:sodipodi="http://sodipodi.sourceforge.net/DTD/sodipodi-0.dtd"
   xmlns="http://www.w3.org/2000/svg"
   xmlns:svg="http://www.w3.org/2000/svg">
  <defs
     id="defs25" />
  <sodipodi:namedview
     id="namedview25"
     pagecolor="#ffffff"
     bordercolor="#000000"
     borderopacity="0.25"
     inkscape:showpageshadow="2"
     inkscape:pageopacity="0.0"
     inkscape:pagecheckerboard="0"
     inkscape:deskcolor="#d1d1d1"
     inkscape:zoom="0.859375"
     inkscape:cx="512"
     inkscape:cy="543.41818"
     inkscape:window-width="2992"
     inkscape:window-height="1543"
     inkscape:window-x="8"
     inkscape:window-y="38"
     inkscape:window-maximized="0"
     inkscape:current-layer="svg25" />
  <g
     transform="rotate(22.8243,1050.3052,169.4616)"
     id="g25">
    <path
       fill="#333233"
       d="m 769.005,106.665 c 9.584,-1.456 20.651,1.492 28.611,6.91 6.753,4.597 11.517,10.63 15.041,17.939 6.568,13.625 11.975,28.07 17.588,42.122 5.381,13.473 11.048,26.846 16.628,40.24 l 82.853,203.14 q 20.761,50.106 40.402,100.662 c 4.51,11.602 11.386,24.415 13.706,36.558 1.626,8.515 2.259,33.994 0.689,42.439 -0.703,3.779 -2.032,7.199 -4.245,10.358 -3.604,5.142 -8.916,9.294 -14.61,11.877 -12.403,5.628 -25.248,10.556 -37.799,15.868 q -41.509,17.839 -83.235,35.166 L 580.119,781.7 Q 461.301,833.443 341.702,883.356 l -53.925,22.769 c -10.077,4.218 -20.954,10.074 -31.709,11.889 -10.274,0.379 -19.49,-1.917 -27.938,-7.972 -5.218,-3.74 -8.946,-8.335 -11.594,-14.182 -3.47,-7.665 -6.188,-15.811 -9.289,-23.647 L 188.149,824.635 104.964,617.918 59.9262,508.066 47.9233,478.438 c -3.3005,-8.062 -7.8202,-16.788 -9.1402,-25.44 -2.0011,-13.116 0.8352,-27.465 8.8368,-38.175 4.231,-5.663 9.7657,-10.881 16.2061,-13.901 10.1489,-4.758 20.9024,-8.412 31.2307,-12.807 L 195.831,345.983 458.188,235.297 698.79,134.138 q 15.725,-6.468 31.339,-13.2 c 12.536,-5.438 25.26,-12.215 38.876,-14.273 z"
       id="path1" />
    <path
       fill="#8c8c8b"
       d="m 969.143,584.447 0.568,0.2 c 0.076,0.167 0.169,0.326 0.228,0.5 0.945,2.78 0.388,10.337 -0.988,12.965 -1.404,2.683 -6.539,5.378 -9.212,6.747 -12.867,6.588 -28.056,11.748 -41.488,17.281 -14.356,5.913 -28.552,12.754 -43.141,18.002 l -0.533,-0.195 c -0.585,-2.146 2.546,-13.515 3.127,-16.559 30.153,-13.776 61.079,-25.69 91.439,-38.941 z"
       id="path2" />
    <path
       fill="#616264"
       d="m 337.183,849.972 0.507,0.203 c 1.015,3.043 -0.237,14.461 -0.348,18.377 -14.751,7.841 -31.089,13.663 -46.508,20.151 -10.091,4.247 -20.127,9.415 -30.437,13.034 -2.554,0.896 -5.208,1.689 -7.936,1.702 -7.037,0.034 -13.352,-2.471 -18.446,-7.308 -3.428,-4.11 -5.651,-9.11 -8.001,-13.881 8.672,2.423 17.899,3.615 26.853,2.138 11.306,-1.866 23.118,-8.59 33.656,-13.119 7.967,-3.424 16.102,-6.436 24.086,-9.818 8.887,-3.764 17.614,-7.881 26.574,-11.479 z"
       id="path3" />
    <path
       fill="#616264"
       d="m 861.302,627.075 c 0.026,0.02 0.061,0.032 0.077,0.061 0.725,1.354 -3.589,17.862 -4.234,20.715 -8.495,4.979 -18.336,8.416 -27.418,12.225 l -38.714,16.53 q -67.971,29.311 -136.327,57.712 l -58.323,25.455 q -84.893,36.859 -170.389,72.3 c -16.814,6.934 -33.436,14.353 -50.206,21.401 -7.832,3.291 -15.632,6.799 -23.651,9.606 -0.084,-0.082 -0.185,-0.149 -0.254,-0.245 -1.14,-1.585 0.171,-15.193 0.343,-18.011 5.436,-3.048 11.499,-5.324 17.231,-7.783 l 37.304,-15.621 130.351,-55.412 207.39,-89.147 q 35.456,-15.416 71.07,-30.464 c 15.234,-6.551 30.258,-13.372 45.75,-19.322 z"
       id="path4" />
    <path
       fill="#8c8c8b"
       d="m 259.098,867.481 c -10.733,3.818 -21.436,3.832 -31.884,-0.954 -3.486,-1.596 -7.29,-3.875 -9.083,-7.382 -2.354,-4.605 -4.026,-9.826 -5.994,-14.623 q -6.696,-16.169 -13.184,-32.424 L 164.608,726.659 91.9307,546.286 C 80.9819,519.201 68.668,492.61 58.3299,465.287 53.6768,452.99 51.0373,441.116 56.7946,428.592 c 5.1834,-11.275 14.739,-14.484 25.4703,-18.515 -2.2609,7.805 -3.1529,17.287 -0.8911,25.198 3.1684,11.081 9.0244,22.038 13.5076,32.683 11.9716,28.425 24.6886,56.543 36.5066,85.039 22.492,54.231 43.161,109.26 65.546,163.538 l 39.765,97.176 c 7.382,17.875 15.668,35.657 22.399,53.77 z"
       id="path5" />
    <path
       fill="#616264"
       d="m 778.154,558.395 c 0.964,-0.031 1.405,0.286 2.18,0.807 5.799,3.897 11.228,8.621 16.805,12.86 18.301,13.911 36.04,28.479 54.694,41.925 -12.666,6.137 -25.986,11.157 -38.906,16.763 l -82.303,35.725 -323.751,140.699 c -17.955,6.642 -35.605,14.744 -53.359,21.967 -0.342,-31.3 2.999,-62.406 2.219,-93.75 5.181,-3.07 11.08,-5.349 16.614,-7.709 9.842,-4.198 19.769,-8.202 29.656,-12.294 l 83.423,-34.936 z"
       id="path6" />
    <path
       fill="#333233"
       d="m 784.517,591.161 q 0.974,-0.005 1.943,0.098 0.969,0.104 1.92,0.315 0.951,0.212 1.873,0.528 0.921,0.316 1.802,0.733 0.713,0.334 1.386,0.741 0.674,0.407 1.302,0.882 0.628,0.475 1.202,1.013 0.575,0.538 1.091,1.133 0.515,0.595 0.965,1.24 0.451,0.646 0.832,1.335 0.38,0.689 0.687,1.414 0.307,0.725 0.536,1.478 c 1.13,3.678 0.613,7.548 -1.351,10.843 -2.695,4.523 -6.729,6.437 -11.613,7.662 -4.017,0 -7.211,-0.087 -10.752,-2.294 q -0.598,-0.378 -1.156,-0.813 -0.559,-0.435 -1.071,-0.924 -0.513,-0.488 -0.974,-1.024 -0.462,-0.536 -0.869,-1.115 -0.407,-0.58 -0.754,-1.196 -0.348,-0.617 -0.633,-1.265 -0.285,-0.647 -0.505,-1.32 -0.22,-0.673 -0.372,-1.364 -0.156,-0.702 -0.24,-1.417 -0.085,-0.714 -0.097,-1.433 -0.013,-0.719 0.046,-1.436 0.059,-0.717 0.19,-1.424 0.131,-0.707 0.332,-1.398 0.201,-0.691 0.469,-1.358 0.269,-0.667 0.603,-1.304 0.335,-0.637 0.731,-1.237 c 2.948,-4.442 7.423,-6.21 12.477,-7.093 z"
       id="path7" />
    <path
       fill="#ffffff"
       d="m 782.979,601.03 c 1.355,-0.064 2.852,-0.221 4.193,0.002 1.462,0.242 3.014,1.424 3.786,2.674 0.674,1.09 0.787,2.357 0.37,3.564 -0.726,2.101 -2.423,3.173 -4.234,4.26 -0.867,-0.005 -1.737,-10e-4 -2.603,-0.07 -1.943,-0.155 -3.722,-1.344 -4.887,-2.889 -0.836,-1.109 -1.196,-2.524 -0.795,-3.879 0.61,-2.066 2.397,-2.806 4.17,-3.662 z"
       id="path8" />
    <path
       fill="#333233"
       d="m 390.637,756.189 c 2.492,0.178 4.75,0.549 7.06,1.565 4.002,1.76 7.308,4.933 8.776,9.104 q 0.251,0.721 0.428,1.463 0.178,0.742 0.282,1.498 0.103,0.756 0.131,1.518 0.028,0.763 -0.019,1.525 -0.048,0.761 -0.171,1.514 -0.123,0.753 -0.32,1.491 -0.197,0.737 -0.466,1.451 -0.269,0.714 -0.607,1.398 c -2.593,5.322 -6.972,7.778 -12.349,9.526 -3.834,0.095 -7.014,-0.313 -10.239,-2.545 -3.929,-2.719 -6.462,-7.25 -7.091,-11.951 -0.561,-4.191 0.525,-8.655 3.2,-11.964 2.957,-3.657 6.813,-5.179 11.385,-5.593 z"
       id="path9" />
    <path
       fill="#ffffff"
       d="m 389.571,765.492 c 0.901,0.085 1.818,0.167 2.705,0.354 2.13,0.449 4.158,1.797 5.23,3.711 0.815,1.456 0.943,2.999 0.457,4.596 -0.799,2.626 -3.025,3.933 -5.356,4.992 -1.282,0.202 -2.726,0.161 -3.956,-0.28 -1.882,-0.675 -3.346,-1.895 -4.148,-3.748 q -0.141,-0.335 -0.246,-0.682 -0.105,-0.348 -0.173,-0.705 -0.068,-0.357 -0.098,-0.718 -0.031,-0.362 -0.023,-0.726 0.008,-0.363 0.054,-0.723 0.046,-0.36 0.129,-0.714 0.084,-0.353 0.204,-0.696 0.12,-0.343 0.275,-0.671 c 1.079,-2.304 2.697,-3.097 4.946,-3.99 z"
       id="path10" />
    <path
       fill="#333233"
       d="m 455.098,719.17 c 4.373,-0.003 9.359,1.634 13,4.006 3.719,2.424 6.397,5.983 7.142,10.414 0.789,4.7 -0.981,9.428 -3.868,13.096 -5.079,6.453 -12.12,8.805 -19.927,9.788 -5.052,-0.353 -10.081,-1.312 -14.318,-4.268 -3.558,-2.483 -5.972,-6.244 -6.55,-10.562 -0.6,-4.484 0.776,-8.714 3.536,-12.252 4.993,-6.399 13.172,-9.39 20.985,-10.222 z"
       id="path11" />
    <path
       fill="#333233"
       d="m 706.399,612.582 c 4.666,-0.321 8.764,-0.055 12.915,2.321 q 0.434,0.253 0.855,0.528 0.421,0.275 0.828,0.571 0.406,0.295 0.798,0.611 0.391,0.316 0.766,0.651 0.375,0.335 0.732,0.688 0.358,0.354 0.697,0.724 0.34,0.371 0.66,0.759 0.321,0.387 0.621,0.79 0.301,0.403 0.58,0.821 0.28,0.418 0.539,0.849 0.258,0.431 0.495,0.875 0.237,0.443 0.451,0.898 0.213,0.455 0.404,0.92 0.191,0.465 0.358,0.94 0.168,0.474 0.311,0.956 0.143,0.481 0.262,0.97 0.133,0.514 0.24,1.035 0.107,0.52 0.187,1.045 0.08,0.525 0.134,1.053 0.053,0.529 0.08,1.059 0.027,0.531 0.026,1.062 0,0.531 -0.028,1.062 -0.027,0.53 -0.081,1.058 -0.055,0.529 -0.136,1.054 -0.081,0.525 -0.189,1.045 -0.107,0.52 -0.241,1.034 -0.134,0.514 -0.294,1.02 -0.16,0.507 -0.346,1.005 -0.185,0.497 -0.396,0.985 -0.21,0.488 -0.445,0.964 -0.235,0.476 -0.494,0.94 -0.259,0.464 -0.541,0.914 c -3.364,5.31 -8.093,7.777 -14.027,9.165 -4.267,0.308 -8.322,-0.245 -12.177,-2.171 q -0.445,-0.222 -0.879,-0.466 -0.434,-0.244 -0.855,-0.509 -0.421,-0.265 -0.829,-0.551 -0.407,-0.286 -0.8,-0.592 -0.393,-0.306 -0.77,-0.631 -0.377,-0.325 -0.737,-0.668 -0.36,-0.343 -0.703,-0.704 -0.343,-0.361 -0.667,-0.738 -0.325,-0.378 -0.63,-0.771 -0.305,-0.393 -0.59,-0.801 -0.286,-0.408 -0.55,-0.829 -0.265,-0.422 -0.508,-0.856 -0.244,-0.434 -0.465,-0.88 -0.221,-0.446 -0.42,-0.902 -0.199,-0.456 -0.375,-0.922 -0.176,-0.465 -0.329,-0.939 c -1.637,-5.058 -1.315,-10.762 1.186,-15.487 3.339,-6.306 8.911,-8.937 15.377,-10.955 z"
       id="path12" />
    <path
       fill="#aeaead"
       d="M 82.2649,410.077 Q 204.8,359.399 326.624,307.033 l 228.048,-96.37 150.912,-63.305 39.427,-16.311 c 7.34,-3.059 14.674,-6.657 22.312,-8.901 6.102,-1.793 12.237,-1.101 18.039,1.331 11.931,5.001 15.037,16.419 19.461,27.45 l 111.909,272.864 30.849,75.937 c 6.625,16.184 14.313,32.655 19.301,49.416 1.501,5.045 2.531,10.466 0.457,15.519 -0.851,2.074 -2.263,4.032 -4.183,5.226 -7.244,4.501 -20.152,8.765 -28.437,12.281 -21.399,9.082 -42.723,18.656 -64.373,27.112 -21.32,-14.872 -41.917,-31.147 -62.52,-47.003 -8.773,-6.752 -17.345,-14.174 -26.562,-20.303 -11.085,2.961 -22.081,8.199 -32.659,12.665 l -46.734,19.642 -188.672,79.187 -135.108,56.192 c -7.665,3.257 -30.575,11.517 -36.16,15.759 -2.161,13.901 -0.753,28.844 -1.112,42.928 -0.548,21.496 -2.25,43.105 -2.37,64.576 q -39.812,16.964 -79.351,34.556 c -6.731,-18.113 -15.017,-35.895 -22.399,-53.77 L 196.934,716.535 C 174.549,662.257 153.88,607.228 131.388,552.997 119.57,524.501 106.853,496.383 94.8814,467.958 90.3982,457.313 84.5422,446.356 81.3738,435.275 79.112,427.364 80.004,417.882 82.2649,410.077 Z"
       id="path13" />
    <path
       fill="#333233"
       d="m 753.963,176.637 c 3.465,-0.08 6.542,0.653 9.622,2.268 4.769,2.502 8.035,6.206 10.513,10.922 3.153,6.003 5.359,12.725 7.874,19.024 5.528,13.849 10.831,27.847 16.698,41.552 5.575,13.024 11.362,25.969 16.785,39.055 l 29.45,72.813 q 9.442,22.737 18.392,45.672 c 2.839,7.23 6.263,14.624 8.378,22.084 1.886,6.654 0.248,13.726 -3.077,19.647 -2.188,3.895 -6.635,6.409 -10.536,8.379 -6.923,3.497 -14.462,6.103 -21.647,9.056 q -22.044,8.966 -43.986,18.179 L 639.975,549.101 348.027,671.848 c -30.902,13.099 -61.529,26.978 -92.591,39.672 -9.646,3.942 -19.575,9.373 -29.565,12.124 -3.763,-0.129 -6.94,-1.015 -10.177,-2.978 -4.049,-2.455 -6.811,-6.068 -8.798,-10.306 -2.072,-4.42 -3.616,-9.159 -5.411,-13.702 l -9.591,-23.839 -38.111,-94.624 c -12.17,-29.448 -24.97,-58.678 -36.579,-88.349 -3.272,-8.362 -8.007,-16.953 -10.157,-25.629 -1.114,-4.495 -0.929,-8.962 1.62,-12.945 1.697,-2.651 4.161,-4.684 6.933,-6.133 9.456,-4.94 19.835,-8.76 29.678,-12.916 q 26.973,-11.451 54.092,-22.552 l 104.112,-43.58 Q 358.888,342.9 413.994,319.004 l 215.156,-90.513 79.461,-33.436 26.368,-11.287 c 6.113,-2.608 12.448,-5.805 18.984,-7.131 z"
       id="path14" />
    <path
       fill="#8c8c8b"
       d="m 154.728,542.965 c 5.867,-3.122 12.407,-5.459 18.544,-8.037 0.126,0.155 0.254,0.309 0.378,0.465 3.408,4.286 6.183,9.251 9.122,13.875 q 7.086,11.193 14.582,22.116 c 7.703,11.085 16.311,21.396 25.008,31.701 16.425,19.461 33.104,38.023 53.825,53.093 q 4.286,3.179 8.842,5.956 4.556,2.778 9.346,5.13 c 4.102,2.019 8.806,3.667 12.579,6.214 -8.527,3.798 -81.031,35.961 -84.077,35.08 -0.845,-0.807 -1.314,-1.51 -1.811,-2.578 -3.518,-7.554 -6.398,-15.532 -9.53,-23.259 q -8.295,-19.975 -16.249,-40.087 -19.997,-49.95 -40.559,-99.669 z"
       id="path15" />
    <path
       fill="#616264"
       d="m 757.387,190.558 1.284,0.025 c 3.404,3.004 24.473,57.39 28.294,66.006 -16.668,7.81 -33.989,14.128 -50.936,21.27 L 612.76,329.542 324.18,453.565 q -87.768,37.444 -174.9,76.346 l -0.502,-0.105 c -3.388,-5.003 -5.446,-12.401 -7.795,-18.052 -7.144,-17.192 -14.654,-34.448 -20.592,-52.101 6.455,-4.015 14.207,-6.533 21.235,-9.44 l 32.783,-13.747 126.186,-53.2 329.037,-139.866 84.771,-35.471 c 14.127,-5.882 28.42,-12.774 42.984,-17.371 z"
       id="path16" />
    <path
       fill="#aeaead"
       d="m 173.272,534.928 c 66.492,-27.375 131.864,-57.432 197.834,-86.026 L 594.192,353.776 725.864,297.99 769.69,279.568 c 7.367,-3.117 15.34,-7.309 23.001,-9.497 q 24.472,58.859 48.196,118.024 c 2.885,7.314 5.559,14.713 8.55,21.984 2.824,6.862 6.394,13.929 8.234,21.113 0.72,2.81 0.567,5.391 -0.606,8.063 -0.676,1.54 -1.526,3.065 -2.411,4.492 q -73.926,29.397 -146.852,61.195 L 586.769,555.964 306.954,673.478 c -3.773,-2.547 -8.477,-4.195 -12.579,-6.214 q -4.79,-2.352 -9.346,-5.13 -4.556,-2.777 -8.842,-5.956 c -20.721,-15.07 -37.4,-33.632 -53.825,-53.093 -8.697,-10.305 -17.305,-20.616 -25.008,-31.701 q -7.496,-10.923 -14.582,-22.116 c -2.939,-4.624 -5.714,-9.589 -9.122,-13.875 -0.124,-0.156 -0.252,-0.31 -0.378,-0.465 z"
       id="path17" />
    <path
       fill="#333233"
       d="m 667.784,346.204 c 17.628,-1.773 33.418,3.911 47.493,14.259 17.109,12.578 27.533,32.395 30.541,53.198 2.662,18.418 -2.153,35.997 -13.263,50.852 -6.733,9.002 -15.288,15.693 -25.316,20.705 -9.373,4.684 -19.31,6.418 -28.984,10.077 -15.036,5.686 -29.915,12.726 -44.728,19.039 l -207.618,89.267 q -16.905,7.15 -33.72,14.508 c -15.136,6.688 -29.139,13.935 -45.746,16.336 -19.702,1.112 -37.726,-4.343 -52.928,-17.117 -15.024,-12.624 -25.124,-29.831 -26.783,-49.559 q -0.138,-1.766 -0.19,-3.536 -0.051,-1.771 -0.017,-3.542 0.034,-1.771 0.154,-3.538 0.12,-1.767 0.326,-3.527 0.206,-1.759 0.496,-3.506 0.291,-1.747 0.666,-3.478 0.376,-1.731 0.835,-3.442 0.458,-1.711 1,-3.398 0.541,-1.686 1.164,-3.344 0.622,-1.659 1.324,-3.285 0.703,-1.626 1.483,-3.216 0.78,-1.59 1.637,-3.14 0.857,-1.551 1.788,-3.058 0.93,-1.507 1.933,-2.967 1.003,-1.46 2.076,-2.87 1.072,-1.409 2.212,-2.765 c 6.302,-7.426 14.222,-14.248 22.953,-18.654 6.97,-3.518 14.449,-6.101 21.716,-8.946 q 11.178,-4.47 22.248,-9.201 l 97.349,-41.339 136.026,-58.612 c 20.727,-8.954 41.159,-18.955 62.232,-27.07 7.119,-2.742 14.04,-4.502 21.641,-5.131 z"
       id="path18" />
    <path
       fill="#8c8c8b"
       d="m 603.693,386.419 0.476,0.101 c 0.368,1.962 -4.586,14.725 -5.336,18.07 -2.797,12.478 -0.239,27.069 4.103,38.881 8.928,24.282 25.932,35.991 48.464,46.418 -9.576,5.762 -21.414,9.542 -31.776,13.849 -3.322,1.262 -6.579,2.837 -9.838,4.264 q -1.164,-1.408 -2.299,-2.84 -1.135,-1.433 -2.24,-2.888 -1.104,-1.456 -2.178,-2.934 -1.074,-1.479 -2.117,-2.979 -1.043,-1.501 -2.054,-3.022 -1.012,-1.522 -1.991,-3.065 -0.979,-1.543 -1.926,-3.106 -0.947,-1.562 -1.861,-3.145 -0.914,-1.582 -1.795,-3.183 -0.881,-1.601 -1.728,-3.22 -0.848,-1.619 -1.661,-3.255 -0.813,-1.637 -1.592,-3.29 -0.779,-1.653 -1.523,-3.322 -0.744,-1.668 -1.453,-3.352 -0.71,-1.685 -1.384,-3.383 -0.673,-1.699 -1.312,-3.411 -0.638,-1.712 -1.24,-3.437 -0.603,-1.725 -1.169,-3.463 -0.566,-1.737 -1.096,-3.486 -0.53,-1.749 -1.023,-3.508 -0.493,-1.76 -0.95,-3.529 -0.456,-1.769 -0.875,-3.548 -0.42,-1.779 -0.802,-3.565 -0.382,-1.787 -0.726,-3.582 -0.345,-1.794 -0.652,-3.596 -0.307,-1.801 -0.577,-3.608 -0.269,-1.808 -0.501,-3.62 -0.232,-1.813 -0.425,-3.63 -0.194,-1.817 -0.35,-3.637 -0.156,-1.821 -0.273,-3.644 -0.118,-1.824 -0.198,-3.65 -0.08,-1.825 -0.121,-3.652 c 11.52,-4.343 22.807,-8.89 33.999,-14.033 z"
       id="path19" />
    <path
       fill="#8c8c8b"
       d="m 405.984,470.996 c 0.108,0.08 0.223,0.152 0.323,0.24 3.12,2.763 6.202,9.135 8.437,12.732 q 1.688,2.672 3.296,5.392 1.609,2.721 3.136,5.488 1.528,2.766 2.973,5.577 1.445,2.81 2.807,5.662 1.362,2.852 2.639,5.743 1.277,2.891 2.468,5.819 1.191,2.927 2.295,5.888 1.105,2.961 2.121,5.954 1.016,2.992 1.944,6.013 0.928,3.022 1.766,6.069 0.838,3.047 1.586,6.118 0.748,3.07 1.405,6.162 0.657,3.091 1.223,6.2 0.566,3.11 1.039,6.234 0.474,3.125 0.855,6.262 0.381,3.138 0.67,6.285 c -12.74,5.656 -28.424,13.595 -41.617,17.044 1.335,-2.497 2.497,-5.054 3.662,-7.633 0.669,-1.626 1.21,-3.296 1.739,-4.971 5.726,-18.167 2.661,-38.502 -6.164,-55.17 -9.678,-18.278 -25.773,-31.309 -45.424,-37.304 q 23.509,-9.668 46.821,-19.804 z"
       id="path20" />
    <path
       fill="#ffffff"
       d="m 338.079,501.7 c 12.966,-1.128 28.232,5.455 38.172,13.431 12.651,10.151 21.329,26.093 23.021,42.244 1.497,14.293 -3.727,29.813 -12.854,40.817 -11.304,13.628 -26.649,20.597 -44.024,22.198 -14.44,0.36 -27.144,-4.104 -38.446,-13.081 q -1.187,-0.941 -2.326,-1.94 -1.139,-0.998 -2.228,-2.051 -1.089,-1.053 -2.124,-2.159 -1.036,-1.105 -2.017,-2.26 -0.98,-1.154 -1.902,-2.356 -0.923,-1.201 -1.785,-2.447 -0.863,-1.245 -1.663,-2.531 -0.8,-1.286 -1.536,-2.61 -0.736,-1.324 -1.407,-2.682 -0.67,-1.359 -1.273,-2.748 -0.603,-1.39 -1.137,-2.808 -0.534,-1.417 -0.997,-2.859 -0.464,-1.442 -0.857,-2.905 -0.392,-1.463 -0.712,-2.944 -0.32,-1.48 -0.567,-2.975 -0.248,-1.494 -0.421,-2.999 c -1.725,-15.619 4.753,-30.188 14.427,-42.142 10.662,-13.174 25.947,-20.379 42.656,-22.193 z"
       id="path21" />
    <path
       fill="#333233"
       d="m 341.925,522.209 c 0.436,0.012 0.79,0.25 1.18,0.433 0.783,2.675 0.401,6.554 0.433,9.394 3.745,0.857 7.466,1.855 11.191,2.797 1.864,-2.491 3.611,-5.085 5.402,-7.63 5.859,3.531 10.659,8.078 15.009,13.326 q -4.036,3.11 -8.007,6.303 1.429,5.673 3.012,11.305 c 3.525,-0.787 6.849,-1.763 10.252,-2.971 1.129,7.306 0.951,16.354 -1.238,23.434 l -11.562,-4.362 c -1.967,3.621 -3.989,7.108 -6.296,10.523 l 6.49,7.66 c -6.524,7.101 -15.867,10.548 -24.969,12.906 -0.554,0.044 -1.14,-0.052 -1.694,-0.098 -2.175,-2.499 -2.139,-8.445 -2.491,-11.753 -3.903,-0.652 -7.754,-1.639 -11.604,-2.548 l -5.263,7.529 c -6.75,-2.841 -12.627,-7.615 -17.516,-12.992 2.429,-3.225 5.168,-6.05 7.994,-8.926 -1.578,-3.525 -3.053,-6.945 -4.09,-10.671 q -5.491,0.111 -10.978,0.362 c -0.483,-8.268 1.197,-14.722 3.875,-22.46 3.351,1.125 6.784,2.028 10.187,2.986 1.878,-3.163 3.984,-5.723 6.736,-8.146 -1.385,-2.289 -2.93,-4.507 -3.636,-7.109 0.247,-0.72 0.485,-1.363 1.011,-1.934 5.081,-5.521 19.507,-7.023 26.572,-7.358 z"
       id="path22" />
    <path
       fill="#ffffff"
       d="m 669.006,360.706 c 0.047,-0.006 0.094,-0.014 0.142,-0.017 q 1.396,-0.099 2.796,-0.129 1.4,-0.03 2.799,0.01 1.4,0.039 2.795,0.148 1.396,0.109 2.785,0.287 1.388,0.177 2.766,0.424 1.378,0.246 2.743,0.56 1.364,0.315 2.711,0.696 1.347,0.381 2.673,0.829 1.326,0.448 2.629,0.961 1.303,0.512 2.578,1.089 1.276,0.577 2.522,1.216 1.245,0.639 2.457,1.339 1.213,0.7 2.389,1.459 1.176,0.759 2.313,1.576 1.138,0.816 2.233,1.688 1.095,0.872 2.146,1.797 1.179,1.033 2.305,2.123 1.126,1.09 2.197,2.235 1.072,1.144 2.085,2.34 1.013,1.196 1.966,2.441 0.953,1.244 1.843,2.534 0.89,1.291 1.715,2.623 0.826,1.333 1.584,2.705 0.759,1.371 1.448,2.779 0.69,1.407 1.31,2.847 0.619,1.44 1.166,2.909 0.548,1.469 1.022,2.963 0.474,1.494 0.874,3.009 0.4,1.516 0.724,3.049 0.324,1.534 0.573,3.082 0.248,1.547 0.419,3.105 0.172,1.558 0.266,3.123 c 0.837,14.721 -3.199,28.236 -13.113,39.314 -10.73,11.99 -27.715,20.067 -43.743,20.893 -12.851,1.12 -28.324,-4.949 -38.364,-12.711 q -1.212,-0.943 -2.375,-1.944 -1.164,-1.001 -2.278,-2.058 -1.114,-1.057 -2.175,-2.166 -1.06,-1.11 -2.066,-2.271 -1.005,-1.16 -1.952,-2.368 -0.948,-1.208 -1.835,-2.461 -0.887,-1.253 -1.712,-2.547 -0.825,-1.295 -1.586,-2.629 -0.761,-1.333 -1.456,-2.702 -0.695,-1.369 -1.322,-2.77 -0.627,-1.402 -1.185,-2.832 -0.557,-1.43 -1.045,-2.886 -0.487,-1.456 -0.903,-2.934 -0.416,-1.478 -0.759,-2.974 -0.343,-1.496 -0.612,-3.008 -0.27,-1.511 -0.465,-3.034 c -1.788,-14.818 2.986,-31.473 12.334,-43.114 10.415,-12.97 27.618,-18.86 43.638,-20.598 z"
       id="path23" />
    <path
       fill="#333233"
       d="m 667.581,379.668 c 1.132,0.151 1.222,0.18 2.072,0.941 0.707,3.306 0.416,6.916 0.58,10.311 4.09,0.046 7.851,0.314 11.739,1.679 1.046,-3.274 2.291,-6.461 3.533,-9.664 7.087,3.118 13.238,8.098 19.22,12.933 -3.237,1.573 -6.136,3.232 -8.885,5.573 1.767,3.573 3.391,7.071 4.693,10.841 3.429,-0.543 6.855,-1.4 10.254,-2.121 3.851,9.143 2.125,17.848 0.098,27.179 -3.493,-0.971 -6.719,-2.392 -10.031,-3.852 -1.581,4.067 -3.336,7.289 -6.642,10.252 2.354,2.375 4.475,4.95 6.63,7.503 -8.039,4.687 -13.938,8.282 -23.19,10.106 l -1.408,-0.385 c -1.909,-2.535 -0.715,-7.211 -0.368,-10.225 q -7.111,-0.76 -14.231,-1.436 c -0.866,2.824 -1.755,5.188 -3.208,7.775 -8.887,-2.319 -15.86,-9.164 -21.065,-16.386 2.14,-2.014 4.651,-3.667 7.023,-5.397 -1.588,-3.421 -2.538,-6.707 -3.184,-10.407 -3.592,0.207 -7.002,0.712 -10.474,1.65 -1.317,-8.295 0.454,-14.726 3.299,-22.471 3.157,1.692 6.192,3.344 9.619,4.425 2.389,-3.943 4.913,-6.942 8.284,-10.089 -3.027,-2.057 -6.689,-4.281 -7.616,-8.024 0.142,-0.957 0.275,-1.456 0.902,-2.232 3.747,-4.635 16.493,-7.798 22.356,-8.479 z"
       id="path24" />
    <path
       fill="#ffffff"
       d="m 554.225,407.416 c 1.749,0.71 1.536,8.348 1.664,10.36 1.844,28.954 20.536,76.402 41.756,96.478 -19.563,9.313 -39.814,17.452 -59.803,25.806 l -75.181,31.855 -0.858,0.34 c -0.208,-0.126 -0.504,-0.166 -0.626,-0.378 -0.698,-1.213 -1.512,-11.627 -1.975,-14.237 -1.113,-6.273 -2.836,-12.494 -4.498,-18.64 -7.264,-26.869 -19.589,-50.284 -34.614,-73.551 13.811,-6.901 28.449,-12.39 42.676,-18.39 q 27.599,-11.66 54.994,-23.791 c 12.15,-5.272 24.475,-10.231 36.465,-15.852 z"
       id="path25" />
  </g>
</svg>
