<?xml version="1.0" encoding="utf-8" ?>
<svg xmlns="http://www.w3.org/2000/svg" xmlns:xlink="http://www.w3.org/1999/xlink" width="1024" height="1024">
	<path fill="white" d="M0 0L1024 0L1024 1024L0 1024L0 0Z"/>
	<path fill="#333233" d="M769.005 106.665C778.589 105.209 789.656 108.157 797.616 113.575C804.369 118.172 809.133 124.205 812.657 131.514C819.225 145.139 824.632 159.584 830.245 173.636C835.626 187.109 841.293 200.482 846.873 213.876L929.726 417.016Q950.487 467.122 970.128 517.678C974.638 529.28 981.514 542.093 983.834 554.236C985.46 562.751 986.093 588.23 984.523 596.675C983.82 600.454 982.491 603.874 980.278 607.033C976.674 612.175 971.362 616.327 965.668 618.91C953.265 624.538 940.42 629.466 927.869 634.778Q886.36 652.617 844.634 669.944L580.119 781.7Q461.301 833.443 341.702 883.356L287.777 906.125C277.7 910.343 266.823 916.199 256.068 918.014C245.794 918.393 236.578 916.097 228.13 910.042C222.912 906.302 219.184 901.707 216.536 895.86C213.066 888.195 210.348 880.049 207.247 872.213L188.149 824.635L104.964 617.918L59.9262 508.066L47.9233 478.438C44.6228 470.376 40.1031 461.65 38.7831 452.998C36.782 439.882 39.6183 425.533 47.6199 414.823C51.8509 409.16 57.3856 403.942 63.826 400.922C73.9749 396.164 84.7284 392.51 95.0567 388.115L195.831 345.983L458.188 235.297L698.79 134.138Q714.515 127.67 730.129 120.938C742.665 115.5 755.389 108.723 769.005 106.665Z"/>
	<path fill="#8C8C8B" d="M969.143 584.447L969.711 584.647C969.787 584.814 969.88 584.973 969.939 585.147C970.884 587.927 970.327 595.484 968.951 598.112C967.547 600.795 962.412 603.49 959.739 604.859C946.872 611.447 931.683 616.607 918.251 622.14C903.895 628.053 889.699 634.894 875.11 640.142L874.577 639.947C873.992 637.801 877.123 626.432 877.704 623.388C907.857 609.612 938.783 597.698 969.143 584.447Z"/>
	<path fill="#616264" d="M337.183 849.972L337.69 850.175C338.705 853.218 337.453 864.636 337.342 868.552C322.591 876.393 306.253 882.215 290.834 888.703C280.743 892.95 270.707 898.118 260.397 901.737C257.843 902.633 255.189 903.426 252.461 903.439C245.424 903.473 239.109 900.968 234.015 896.131C230.587 892.021 228.364 887.021 226.014 882.25C234.686 884.673 243.913 885.865 252.867 884.388C264.173 882.522 275.985 875.798 286.523 871.269C294.49 867.845 302.625 864.833 310.609 861.451C319.496 857.687 328.223 853.57 337.183 849.972Z"/>
	<path fill="#616264" d="M861.302 627.075C861.328 627.095 861.363 627.107 861.379 627.136C862.104 628.49 857.79 644.998 857.145 647.851C848.65 652.83 838.809 656.267 829.727 660.076L791.013 676.606Q723.042 705.917 654.686 734.318L596.363 759.773Q511.47 796.632 425.974 832.073C409.16 839.007 392.538 846.426 375.768 853.474C367.936 856.765 360.136 860.273 352.117 863.08C352.033 862.998 351.932 862.931 351.863 862.835C350.723 861.25 352.034 847.642 352.206 844.824C357.642 841.776 363.705 839.5 369.437 837.041L406.741 821.42L537.092 766.008L744.482 676.861Q779.938 661.445 815.552 646.397C830.786 639.846 845.81 633.025 861.302 627.075Z"/>
	<path fill="#8C8C8B" d="M259.098 867.481C248.365 871.299 237.662 871.313 227.214 866.527C223.728 864.931 219.924 862.652 218.131 859.145C215.777 854.54 214.105 849.319 212.137 844.522Q205.441 828.353 198.953 812.098L164.608 726.659L91.9307 546.286C80.9819 519.201 68.668 492.61 58.3299 465.287C53.6768 452.99 51.0373 441.116 56.7946 428.592C61.978 417.317 71.5336 414.108 82.2649 410.077C80.004 417.882 79.112 427.364 81.3738 435.275C84.5422 446.356 90.3982 457.313 94.8814 467.958C106.853 496.383 119.57 524.501 131.388 552.997C153.88 607.228 174.549 662.257 196.934 716.535L236.699 813.711C244.081 831.586 252.367 849.368 259.098 867.481Z"/>
	<path fill="#616264" d="M778.154 558.395C779.118 558.364 779.559 558.681 780.334 559.202C786.133 563.099 791.562 567.823 797.139 572.062C815.44 585.973 833.179 600.541 851.833 613.987C839.167 620.124 825.847 625.144 812.927 630.75L730.624 666.475L406.873 807.174C388.918 813.816 371.268 821.918 353.514 829.141C353.172 797.841 356.513 766.735 355.733 735.391C360.914 732.321 366.813 730.042 372.347 727.682C382.189 723.484 392.116 719.48 402.003 715.388L485.426 680.452L778.154 558.395Z"/>
	<path fill="#333233" d="M784.517 591.161Q785.491 591.156 786.46 591.259Q787.429 591.363 788.38 591.574Q789.331 591.786 790.253 592.102Q791.174 592.418 792.055 592.835Q792.768 593.169 793.441 593.576Q794.115 593.983 794.743 594.458Q795.371 594.933 795.945 595.471Q796.52 596.009 797.036 596.604Q797.551 597.199 798.001 597.844Q798.452 598.49 798.833 599.179Q799.213 599.868 799.52 600.593Q799.827 601.318 800.056 602.071C801.186 605.749 800.669 609.619 798.705 612.914C796.01 617.437 791.976 619.351 787.092 620.576C783.075 620.576 779.881 620.489 776.34 618.282Q775.742 617.904 775.184 617.469Q774.625 617.034 774.113 616.545Q773.6 616.057 773.139 615.521Q772.677 614.985 772.27 614.406Q771.863 613.826 771.516 613.21Q771.168 612.593 770.883 611.945Q770.598 611.298 770.378 610.625Q770.158 609.952 770.006 609.261Q769.85 608.559 769.766 607.844Q769.681 607.13 769.669 606.411Q769.656 605.692 769.715 604.975Q769.774 604.258 769.905 603.551Q770.036 602.844 770.237 602.153Q770.438 601.462 770.706 600.795Q770.975 600.128 771.309 599.491Q771.644 598.854 772.04 598.254C774.988 593.812 779.463 592.044 784.517 591.161Z"/>
	<path fill="white" d="M782.979 601.03C784.334 600.966 785.831 600.809 787.172 601.032C788.634 601.274 790.186 602.456 790.958 603.706C791.632 604.796 791.745 606.063 791.328 607.27C790.602 609.371 788.905 610.443 787.094 611.53C786.227 611.525 785.357 611.529 784.491 611.46C782.548 611.305 780.769 610.116 779.604 608.571C778.768 607.462 778.408 606.047 778.809 604.692C779.419 602.626 781.206 601.886 782.979 601.03Z"/>
	<path fill="#333233" d="M390.637 756.189C393.129 756.367 395.387 756.738 397.697 757.754C401.699 759.514 405.005 762.687 406.473 766.858Q406.724 767.579 406.901 768.321Q407.079 769.063 407.183 769.819Q407.286 770.575 407.314 771.337Q407.342 772.1 407.295 772.862Q407.247 773.623 407.124 774.376Q407.001 775.129 406.804 775.867Q406.607 776.604 406.338 777.318Q406.069 778.032 405.731 778.716C403.138 784.038 398.759 786.494 393.382 788.242C389.548 788.337 386.368 787.929 383.143 785.697C379.214 782.978 376.681 778.447 376.052 773.746C375.491 769.555 376.577 765.091 379.252 761.782C382.209 758.125 386.065 756.603 390.637 756.189Z"/>
	<path fill="white" d="M389.571 765.492C390.472 765.577 391.389 765.659 392.276 765.846C394.406 766.295 396.434 767.643 397.506 769.557C398.321 771.013 398.449 772.556 397.963 774.153C397.164 776.779 394.938 778.086 392.607 779.145C391.325 779.347 389.881 779.306 388.651 778.865C386.769 778.19 385.305 776.97 384.503 775.117Q384.362 774.782 384.257 774.435Q384.152 774.087 384.084 773.73Q384.016 773.373 383.986 773.012Q383.955 772.65 383.963 772.286Q383.971 771.923 384.017 771.563Q384.063 771.203 384.146 770.849Q384.23 770.496 384.35 770.153Q384.47 769.81 384.625 769.482C385.704 767.178 387.322 766.385 389.571 765.492Z"/>
	<path fill="#333233" d="M455.098 719.17C459.471 719.167 464.457 720.804 468.098 723.176C471.817 725.6 474.495 729.159 475.24 733.59C476.029 738.29 474.259 743.018 471.372 746.686C466.293 753.139 459.252 755.491 451.445 756.474C446.393 756.121 441.364 755.162 437.127 752.206C433.569 749.723 431.155 745.962 430.577 741.644C429.977 737.16 431.353 732.93 434.113 729.392C439.106 722.993 447.285 720.002 455.098 719.17Z"/>
	<path fill="#333233" d="M706.399 612.582C711.065 612.261 715.163 612.527 719.314 614.903Q719.748 615.156 720.169 615.431Q720.59 615.706 720.997 616.002Q721.403 616.297 721.795 616.613Q722.186 616.929 722.561 617.264Q722.936 617.599 723.293 617.952Q723.651 618.306 723.99 618.676Q724.33 619.047 724.65 619.435Q724.971 619.822 725.271 620.225Q725.572 620.628 725.851 621.046Q726.131 621.464 726.39 621.895Q726.648 622.326 726.885 622.77Q727.122 623.213 727.336 623.668Q727.549 624.123 727.74 624.588Q727.931 625.053 728.098 625.528Q728.266 626.002 728.409 626.484Q728.552 626.965 728.671 627.454Q728.804 627.968 728.911 628.489Q729.018 629.009 729.098 629.534Q729.178 630.059 729.232 630.587Q729.285 631.116 729.312 631.646Q729.339 632.177 729.338 632.708Q729.338 633.239 729.31 633.77Q729.283 634.3 729.229 634.828Q729.174 635.357 729.093 635.882Q729.012 636.407 728.904 636.927Q728.797 637.447 728.663 637.961Q728.529 638.475 728.369 638.981Q728.209 639.488 728.023 639.986Q727.838 640.483 727.627 640.971Q727.417 641.459 727.182 641.935Q726.947 642.411 726.688 642.875Q726.429 643.339 726.147 643.789C722.783 649.099 718.054 651.566 712.12 652.954C707.853 653.262 703.798 652.709 699.943 650.783Q699.498 650.561 699.064 650.317Q698.63 650.073 698.209 649.808Q697.788 649.543 697.38 649.257Q696.973 648.971 696.58 648.665Q696.187 648.359 695.81 648.034Q695.433 647.709 695.073 647.366Q694.713 647.023 694.37 646.662Q694.027 646.301 693.703 645.924Q693.378 645.546 693.073 645.153Q692.768 644.76 692.483 644.352Q692.197 643.944 691.933 643.523Q691.668 643.101 691.425 642.667Q691.181 642.233 690.96 641.787Q690.739 641.341 690.54 640.885Q690.341 640.429 690.165 639.963Q689.989 639.498 689.836 639.024C688.199 633.966 688.521 628.262 691.022 623.537C694.361 617.231 699.933 614.6 706.399 612.582Z"/>
	<path fill="#AEAEAD" d="M82.2649 410.077Q204.8 359.399 326.624 307.033L554.672 210.663L705.584 147.358L745.011 131.047C752.351 127.988 759.685 124.39 767.323 122.146C773.425 120.353 779.56 121.045 785.362 123.477C797.293 128.478 800.399 139.896 804.823 150.927L916.732 423.791L947.581 499.728C954.206 515.912 961.894 532.383 966.882 549.144C968.383 554.189 969.413 559.61 967.339 564.663C966.488 566.737 965.076 568.695 963.156 569.889C955.912 574.39 943.004 578.654 934.719 582.17C913.32 591.252 891.996 600.826 870.346 609.282C849.026 594.41 828.429 578.135 807.826 562.279C799.053 555.527 790.481 548.105 781.264 541.976C770.179 544.937 759.183 550.175 748.605 554.641L701.871 574.283L513.199 653.47L378.091 709.662C370.426 712.919 347.516 721.179 341.931 725.421C339.77 739.322 341.178 754.265 340.819 768.349C340.271 789.845 338.569 811.454 338.449 832.925Q298.637 849.889 259.098 867.481C252.367 849.368 244.081 831.586 236.699 813.711L196.934 716.535C174.549 662.257 153.88 607.228 131.388 552.997C119.57 524.501 106.853 496.383 94.8814 467.958C90.3982 457.313 84.5422 446.356 81.3738 435.275C79.112 427.364 80.004 417.882 82.2649 410.077Z"/>
	<path fill="#333233" d="M753.963 176.637C757.428 176.557 760.505 177.29 763.585 178.905C768.354 181.407 771.62 185.111 774.098 189.827C777.251 195.83 779.457 202.552 781.972 208.851C787.5 222.7 792.803 236.698 798.67 250.403C804.245 263.427 810.032 276.372 815.455 289.458L844.905 362.271Q854.347 385.008 863.297 407.943C866.136 415.173 869.56 422.567 871.675 430.027C873.561 436.681 871.923 443.753 868.598 449.674C866.41 453.569 861.963 456.083 858.062 458.053C851.139 461.55 843.6 464.156 836.415 467.109Q814.371 476.075 792.429 485.288L639.975 549.101L348.027 671.848C317.125 684.947 286.498 698.826 255.436 711.52C245.79 715.462 235.861 720.893 225.871 723.644C222.108 723.515 218.931 722.629 215.694 720.666C211.645 718.211 208.883 714.598 206.896 710.36C204.824 705.94 203.28 701.201 201.485 696.658L191.894 672.819L153.783 578.195C141.613 548.747 128.813 519.517 117.204 489.846C113.932 481.484 109.197 472.893 107.047 464.217C105.933 459.722 106.118 455.255 108.667 451.272C110.364 448.621 112.828 446.588 115.6 445.139C125.056 440.199 135.435 436.379 145.278 432.223Q172.251 420.772 199.37 409.671L303.482 366.091Q358.888 342.9 413.994 319.004L629.15 228.491L708.611 195.055L734.979 183.768C741.092 181.16 747.427 177.963 753.963 176.637Z"/>
	<path fill="#8C8C8B" d="M154.728 542.965C160.595 539.843 167.135 537.506 173.272 534.928C173.398 535.083 173.526 535.237 173.65 535.393C177.058 539.679 179.833 544.644 182.772 549.268Q189.858 560.461 197.354 571.384C205.057 582.469 213.665 592.78 222.362 603.085C238.787 622.546 255.466 641.108 276.187 656.178Q280.473 659.357 285.029 662.134Q289.585 664.912 294.375 667.264C298.477 669.283 303.181 670.931 306.954 673.478C298.427 677.276 225.923 709.439 222.877 708.558C222.032 707.751 221.563 707.048 221.066 705.98C217.548 698.426 214.668 690.448 211.536 682.721Q203.241 662.746 195.287 642.634Q175.29 592.684 154.728 542.965Z"/>
	<path fill="#616264" d="M757.387 190.558L758.671 190.583C762.075 193.587 783.144 247.973 786.965 256.589C770.297 264.399 752.976 270.717 736.029 277.859L612.76 329.542L324.18 453.565Q236.412 491.009 149.28 529.911L148.778 529.806C145.39 524.803 143.332 517.405 140.983 511.754C133.839 494.562 126.329 477.306 120.391 459.653C126.846 455.638 134.598 453.12 141.626 450.213L174.409 436.466L300.595 383.266L629.632 243.4L714.403 207.929C728.53 202.047 742.823 195.155 757.387 190.558Z"/>
	<path fill="#AEAEAD" d="M173.272 534.928C239.764 507.553 305.136 477.496 371.106 448.902L594.192 353.776L725.864 297.99L769.69 279.568C777.057 276.451 785.03 272.259 792.691 270.071Q817.163 328.93 840.887 388.095C843.772 395.409 846.446 402.808 849.437 410.079C852.261 416.941 855.831 424.008 857.671 431.192C858.391 434.002 858.238 436.583 857.065 439.255C856.389 440.795 855.539 442.32 854.654 443.747Q780.728 473.144 707.802 504.942L586.769 555.964L306.954 673.478C303.181 670.931 298.477 669.283 294.375 667.264Q289.585 664.912 285.029 662.134Q280.473 659.357 276.187 656.178C255.466 641.108 238.787 622.546 222.362 603.085C213.665 592.78 205.057 582.469 197.354 571.384Q189.858 560.461 182.772 549.268C179.833 544.644 177.058 539.679 173.65 535.393C173.526 535.237 173.398 535.083 173.272 534.928Z"/>
	<path fill="#333233" d="M667.784 346.204C685.412 344.431 701.202 350.115 715.277 360.463C732.386 373.041 742.81 392.858 745.818 413.661C748.48 432.079 743.665 449.658 732.555 464.513C725.822 473.515 717.267 480.206 707.239 485.218C697.866 489.902 687.929 491.636 678.255 495.295C663.219 500.981 648.34 508.021 633.527 514.334L425.909 603.601Q409.004 610.751 392.189 618.109C377.053 624.797 363.05 632.044 346.443 634.445C326.741 635.557 308.717 630.102 293.515 617.328C278.491 604.704 268.391 587.497 266.732 567.769Q266.594 566.003 266.542 564.233Q266.491 562.462 266.525 560.691Q266.559 558.92 266.679 557.153Q266.799 555.386 267.005 553.626Q267.211 551.867 267.501 550.12Q267.792 548.373 268.167 546.642Q268.543 544.911 269.002 543.2Q269.46 541.489 270.002 539.802Q270.543 538.116 271.166 536.458Q271.788 534.799 272.49 533.173Q273.193 531.547 273.973 529.957Q274.753 528.367 275.61 526.817Q276.467 525.266 277.398 523.759Q278.328 522.252 279.331 520.792Q280.334 519.332 281.407 517.922Q282.479 516.513 283.619 515.157C289.921 507.731 297.841 500.909 306.572 496.503C313.542 492.985 321.021 490.402 328.288 487.557Q339.466 483.087 350.536 478.356L447.885 437.017L583.911 378.405C604.638 369.451 625.07 359.45 646.143 351.335C653.262 348.593 660.183 346.833 667.784 346.204Z"/>
	<path fill="#8C8C8B" d="M603.693 386.419L604.169 386.52C604.537 388.482 599.583 401.245 598.833 404.59C596.036 417.068 598.594 431.659 602.936 443.471C611.864 467.753 628.868 479.462 651.4 489.889C641.824 495.651 629.986 499.431 619.624 503.738C616.302 505 613.045 506.575 609.786 508.002Q608.622 506.594 607.487 505.162Q606.352 503.729 605.247 502.274Q604.143 500.818 603.069 499.34Q601.995 497.861 600.952 496.361Q599.909 494.86 598.898 493.339Q597.886 491.817 596.907 490.274Q595.928 488.731 594.981 487.168Q594.034 485.606 593.12 484.023Q592.206 482.441 591.325 480.84Q590.444 479.239 589.597 477.62Q588.749 476.001 587.936 474.365Q587.123 472.728 586.344 471.075Q585.565 469.422 584.821 467.753Q584.077 466.085 583.368 464.401Q582.658 462.716 581.984 461.018Q581.311 459.319 580.672 457.607Q580.034 455.895 579.432 454.17Q578.829 452.445 578.263 450.707Q577.697 448.97 577.167 447.221Q576.637 445.472 576.144 443.713Q575.651 441.953 575.194 440.184Q574.738 438.415 574.319 436.636Q573.899 434.857 573.517 433.071Q573.135 431.284 572.791 429.489Q572.446 427.695 572.139 425.893Q571.832 424.092 571.562 422.285Q571.293 420.477 571.061 418.665Q570.829 416.852 570.636 415.035Q570.442 413.218 570.286 411.398Q570.13 409.577 570.013 407.754Q569.895 405.93 569.815 404.104Q569.735 402.279 569.694 400.452C581.214 396.109 592.501 391.562 603.693 386.419Z"/>
	<path fill="#8C8C8B" d="M405.984 470.996C406.092 471.076 406.207 471.148 406.307 471.236C409.427 473.999 412.509 480.371 414.744 483.968Q416.432 486.64 418.04 489.36Q419.649 492.081 421.176 494.848Q422.704 497.614 424.149 500.425Q425.594 503.235 426.956 506.087Q428.318 508.939 429.595 511.83Q430.872 514.721 432.063 517.649Q433.254 520.576 434.358 523.537Q435.463 526.498 436.479 529.491Q437.495 532.483 438.423 535.504Q439.351 538.526 440.189 541.573Q441.027 544.62 441.775 547.691Q442.523 550.761 443.18 553.853Q443.837 556.944 444.403 560.053Q444.969 563.163 445.442 566.287Q445.916 569.412 446.297 572.549Q446.678 575.687 446.967 578.834C434.227 584.49 418.543 592.429 405.35 595.878C406.685 593.381 407.847 590.824 409.012 588.245C409.681 586.619 410.222 584.949 410.751 583.274C416.477 565.107 413.412 544.772 404.587 528.104C394.909 509.826 378.814 496.795 359.163 490.8Q382.672 481.132 405.984 470.996Z"/>
	<path fill="white" d="M338.079 501.7C351.045 500.572 366.311 507.155 376.251 515.131C388.902 525.282 397.58 541.224 399.272 557.375C400.769 571.668 395.545 587.188 386.418 598.192C375.114 611.82 359.769 618.789 342.394 620.39C327.954 620.75 315.25 616.286 303.948 607.309Q302.761 606.368 301.622 605.369Q300.483 604.371 299.394 603.318Q298.305 602.265 297.27 601.159Q296.234 600.054 295.253 598.899Q294.273 597.745 293.351 596.543Q292.428 595.342 291.566 594.096Q290.703 592.851 289.903 591.565Q289.103 590.279 288.367 588.955Q287.631 587.631 286.96 586.273Q286.29 584.914 285.687 583.525Q285.084 582.135 284.55 580.717Q284.016 579.3 283.553 577.858Q283.089 576.416 282.696 574.953Q282.304 573.49 281.984 572.009Q281.664 570.529 281.417 569.034Q281.169 567.54 280.996 566.035C279.271 550.416 285.749 535.847 295.423 523.893C306.085 510.719 321.37 503.514 338.079 501.7Z"/>
	<path fill="#333233" d="M341.925 522.209C342.361 522.221 342.715 522.459 343.105 522.642C343.888 525.317 343.506 529.196 343.538 532.036C347.283 532.893 351.004 533.891 354.729 534.833C356.593 532.342 358.34 529.748 360.131 527.203C365.99 530.734 370.79 535.281 375.14 540.529Q371.104 543.639 367.133 546.832Q368.562 552.505 370.145 558.137C373.67 557.35 376.994 556.374 380.397 555.166C381.526 562.472 381.348 571.52 379.159 578.6L367.597 574.238C365.63 577.859 363.608 581.346 361.301 584.761L367.791 592.421C361.267 599.522 351.924 602.969 342.822 605.327C342.268 605.371 341.682 605.275 341.128 605.229C338.953 602.73 338.989 596.784 338.637 593.476C334.734 592.824 330.883 591.837 327.033 590.928L321.77 598.457C315.02 595.616 309.143 590.842 304.254 585.465C306.683 582.24 309.422 579.415 312.248 576.539C310.67 573.014 309.195 569.594 308.158 565.868Q302.667 565.979 297.18 566.23C296.697 557.962 298.377 551.508 301.055 543.77C304.406 544.895 307.839 545.798 311.242 546.756C313.12 543.593 315.226 541.033 317.978 538.61C316.593 536.321 315.048 534.103 314.342 531.501C314.589 530.781 314.827 530.138 315.353 529.567C320.434 524.046 334.86 522.544 341.925 522.209Z"/>
	<path fill="white" d="M669.006 360.706C669.053 360.7 669.1 360.692 669.148 360.689Q670.544 360.59 671.944 360.56Q673.344 360.53 674.743 360.57Q676.143 360.609 677.538 360.718Q678.934 360.827 680.323 361.005Q681.711 361.182 683.089 361.429Q684.467 361.675 685.832 361.989Q687.196 362.304 688.543 362.685Q689.89 363.066 691.216 363.514Q692.542 363.962 693.845 364.475Q695.148 364.987 696.423 365.564Q697.699 366.141 698.945 366.78Q700.19 367.419 701.402 368.119Q702.615 368.819 703.791 369.578Q704.967 370.337 706.104 371.154Q707.242 371.97 708.337 372.842Q709.432 373.714 710.483 374.639Q711.662 375.672 712.788 376.762Q713.914 377.852 714.985 378.997Q716.057 380.141 717.07 381.337Q718.083 382.533 719.036 383.778Q719.989 385.022 720.879 386.312Q721.769 387.603 722.594 388.935Q723.42 390.268 724.178 391.64Q724.937 393.011 725.626 394.419Q726.316 395.826 726.936 397.266Q727.555 398.706 728.102 400.175Q728.65 401.644 729.124 403.138Q729.598 404.632 729.998 406.147Q730.398 407.663 730.722 409.196Q731.046 410.73 731.295 412.278Q731.543 413.825 731.714 415.383Q731.886 416.941 731.98 418.506C732.817 433.227 728.781 446.742 718.867 457.82C708.137 469.81 691.152 477.887 675.124 478.713C662.273 479.833 646.8 473.764 636.76 466.002Q635.548 465.059 634.385 464.058Q633.221 463.057 632.107 462Q630.993 460.943 629.932 459.834Q628.872 458.724 627.866 457.563Q626.861 456.403 625.914 455.195Q624.966 453.987 624.079 452.734Q623.192 451.481 622.367 450.187Q621.542 448.892 620.781 447.558Q620.02 446.225 619.325 444.856Q618.63 443.487 618.003 442.086Q617.376 440.684 616.818 439.254Q616.261 437.824 615.773 436.368Q615.286 434.912 614.87 433.434Q614.454 431.956 614.111 430.46Q613.768 428.964 613.499 427.452Q613.229 425.941 613.034 424.418C611.246 409.6 616.02 392.945 625.368 381.304C635.783 368.334 652.986 362.444 669.006 360.706Z"/>
	<path fill="#333233" d="M667.581 379.668C668.713 379.819 668.803 379.848 669.653 380.609C670.36 383.915 670.069 387.525 670.233 390.92C674.323 390.966 678.084 391.234 681.972 392.599C683.018 389.325 684.263 386.138 685.505 382.935C692.592 386.053 698.743 391.033 704.725 395.868C701.488 397.441 698.589 399.1 695.84 401.441C697.607 405.014 699.231 408.512 700.533 412.282C703.962 411.739 707.388 410.882 710.787 410.161C714.638 419.304 712.912 428.009 710.885 437.34C707.392 436.369 704.166 434.948 700.854 433.488C699.273 437.555 697.518 440.777 694.212 443.74C696.566 446.115 698.687 448.69 700.842 451.243C692.803 455.93 686.904 459.525 677.652 461.349L676.244 460.964C674.335 458.429 675.529 453.753 675.876 450.739Q668.765 449.979 661.645 449.303C660.779 452.127 659.89 454.491 658.437 457.078C649.55 454.759 642.577 447.914 637.372 440.692C639.512 438.678 642.023 437.025 644.395 435.295C642.807 431.874 641.857 428.588 641.211 424.888C637.619 425.095 634.209 425.6 630.737 426.538C629.42 418.243 631.191 411.812 634.036 404.067C637.193 405.759 640.228 407.411 643.655 408.492C646.044 404.549 648.568 401.55 651.939 398.403C648.912 396.346 645.25 394.122 644.323 390.379C644.465 389.422 644.598 388.923 645.225 388.147C648.972 383.512 661.718 380.349 667.581 379.668Z"/>
	<path fill="white" d="M554.225 407.416C555.974 408.126 555.761 415.764 555.889 417.776C557.733 446.73 576.425 494.178 597.645 514.254C578.082 523.567 557.831 531.706 537.842 540.06L462.661 571.915L461.803 572.255C461.595 572.129 461.299 572.089 461.177 571.877C460.479 570.664 459.665 560.25 459.202 557.64C458.089 551.367 456.366 545.146 454.704 539C447.44 512.131 435.115 488.716 420.09 465.449C433.901 458.548 448.539 453.059 462.766 447.059Q490.365 435.399 517.76 423.268C529.91 417.996 542.235 413.037 554.225 407.416Z"/>
</svg>
